<mxfile host="app.diagrams.net" modified="2023-12-07T19:17:31.131Z" agent="Mozilla/5.0 (Windows NT 10.0; Win64; x64) AppleWebKit/537.36 (KHTML, like Gecko) Chrome/119.0.0.0 Safari/537.36" etag="LdaeNUYA9y1qlCeInsfW" version="22.1.7" type="device">
  <diagram name="Страница — 1" id="H7r9oYSUf2JJ1ZdDbav8">
    <mxGraphModel dx="676" dy="366" grid="0" gridSize="10" guides="1" tooltips="1" connect="1" arrows="1" fold="1" page="1" pageScale="1" pageWidth="827" pageHeight="1169" math="0" shadow="0">
      <root>
        <mxCell id="0" />
        <mxCell id="1" parent="0" />
        <mxCell id="nC2SWgwCaOQuHV5JSC3r-1" value="Посетитель&lt;br&gt;" style="shape=umlActor;verticalLabelPosition=bottom;verticalAlign=top;html=1;outlineConnect=0;" vertex="1" parent="1">
          <mxGeometry x="350" y="85" width="30" height="60" as="geometry" />
        </mxCell>
        <mxCell id="nC2SWgwCaOQuHV5JSC3r-2" value="Повар/Кассир" style="shape=umlActor;verticalLabelPosition=bottom;verticalAlign=top;html=1;outlineConnect=0;" vertex="1" parent="1">
          <mxGeometry x="339.5" y="273" width="30" height="60" as="geometry" />
        </mxCell>
        <mxCell id="nC2SWgwCaOQuHV5JSC3r-7" value="Просмотр меню" style="ellipse;whiteSpace=wrap;html=1;" vertex="1" parent="1">
          <mxGeometry x="489" y="138" width="74" height="48" as="geometry" />
        </mxCell>
        <mxCell id="nC2SWgwCaOQuHV5JSC3r-8" value="Создание заказа" style="ellipse;whiteSpace=wrap;html=1;" vertex="1" parent="1">
          <mxGeometry x="316" y="209" width="74" height="48" as="geometry" />
        </mxCell>
        <mxCell id="nC2SWgwCaOQuHV5JSC3r-9" value="Редактирование заказа" style="ellipse;whiteSpace=wrap;html=1;" vertex="1" parent="1">
          <mxGeometry x="408" y="192" width="110" height="47" as="geometry" />
        </mxCell>
        <mxCell id="nC2SWgwCaOQuHV5JSC3r-10" value="Просмотр статуса заказа" style="ellipse;whiteSpace=wrap;html=1;" vertex="1" parent="1">
          <mxGeometry x="177" y="126" width="98" height="57" as="geometry" />
        </mxCell>
        <mxCell id="nC2SWgwCaOQuHV5JSC3r-11" value="Изменение этапа заказа" style="ellipse;whiteSpace=wrap;html=1;" vertex="1" parent="1">
          <mxGeometry x="422.5" y="346" width="126" height="48" as="geometry" />
        </mxCell>
        <mxCell id="nC2SWgwCaOQuHV5JSC3r-12" value="Изменение информации о блюдах" style="ellipse;whiteSpace=wrap;html=1;" vertex="1" parent="1">
          <mxGeometry x="259.5" y="418" width="106" height="64" as="geometry" />
        </mxCell>
        <mxCell id="nC2SWgwCaOQuHV5JSC3r-13" value="Изменение повара" style="ellipse;whiteSpace=wrap;html=1;" vertex="1" parent="1">
          <mxGeometry x="387.5" y="409" width="74" height="56" as="geometry" />
        </mxCell>
        <mxCell id="nC2SWgwCaOQuHV5JSC3r-14" value="Поиск заказа" style="ellipse;whiteSpace=wrap;html=1;" vertex="1" parent="1">
          <mxGeometry x="230" y="186" width="74" height="48" as="geometry" />
        </mxCell>
        <mxCell id="nC2SWgwCaOQuHV5JSC3r-15" value="Добавление коментария к заказу" style="ellipse;whiteSpace=wrap;html=1;" vertex="1" parent="1">
          <mxGeometry x="157.5" y="364" width="128" height="54" as="geometry" />
        </mxCell>
        <mxCell id="nC2SWgwCaOQuHV5JSC3r-16" value="" style="endArrow=none;html=1;rounded=0;exitX=0.984;exitY=0.336;exitDx=0;exitDy=0;exitPerimeter=0;" edge="1" parent="1" source="nC2SWgwCaOQuHV5JSC3r-10">
          <mxGeometry width="50" height="50" relative="1" as="geometry">
            <mxPoint x="261" y="138" as="sourcePoint" />
            <mxPoint x="335" y="140" as="targetPoint" />
          </mxGeometry>
        </mxCell>
        <mxCell id="nC2SWgwCaOQuHV5JSC3r-17" value="" style="endArrow=none;html=1;rounded=0;exitX=0.764;exitY=0.055;exitDx=0;exitDy=0;exitPerimeter=0;" edge="1" parent="1" source="nC2SWgwCaOQuHV5JSC3r-14">
          <mxGeometry width="50" height="50" relative="1" as="geometry">
            <mxPoint x="283" y="155" as="sourcePoint" />
            <mxPoint x="330" y="160" as="targetPoint" />
          </mxGeometry>
        </mxCell>
        <mxCell id="nC2SWgwCaOQuHV5JSC3r-18" value="" style="endArrow=none;html=1;rounded=0;exitX=0.5;exitY=0;exitDx=0;exitDy=0;" edge="1" parent="1" source="nC2SWgwCaOQuHV5JSC3r-8">
          <mxGeometry width="50" height="50" relative="1" as="geometry">
            <mxPoint x="349" y="194" as="sourcePoint" />
            <mxPoint x="358" y="167" as="targetPoint" />
          </mxGeometry>
        </mxCell>
        <mxCell id="nC2SWgwCaOQuHV5JSC3r-19" value="" style="endArrow=none;html=1;rounded=0;exitX=0.344;exitY=0.016;exitDx=0;exitDy=0;exitPerimeter=0;" edge="1" parent="1" source="nC2SWgwCaOQuHV5JSC3r-9">
          <mxGeometry width="50" height="50" relative="1" as="geometry">
            <mxPoint x="303" y="175" as="sourcePoint" />
            <mxPoint x="397" y="167" as="targetPoint" />
          </mxGeometry>
        </mxCell>
        <mxCell id="nC2SWgwCaOQuHV5JSC3r-20" value="" style="endArrow=none;html=1;rounded=0;exitX=0;exitY=0.5;exitDx=0;exitDy=0;" edge="1" parent="1" source="nC2SWgwCaOQuHV5JSC3r-7">
          <mxGeometry width="50" height="50" relative="1" as="geometry">
            <mxPoint x="313" y="185" as="sourcePoint" />
            <mxPoint x="393" y="144" as="targetPoint" />
          </mxGeometry>
        </mxCell>
        <mxCell id="nC2SWgwCaOQuHV5JSC3r-21" value="" style="endArrow=none;html=1;rounded=0;exitX=1;exitY=0;exitDx=0;exitDy=0;" edge="1" parent="1" source="nC2SWgwCaOQuHV5JSC3r-15">
          <mxGeometry width="50" height="50" relative="1" as="geometry">
            <mxPoint x="312.5" y="179" as="sourcePoint" />
            <mxPoint x="311.5" y="349" as="targetPoint" />
          </mxGeometry>
        </mxCell>
        <mxCell id="nC2SWgwCaOQuHV5JSC3r-22" value="" style="endArrow=none;html=1;rounded=0;exitX=0.5;exitY=0;exitDx=0;exitDy=0;" edge="1" parent="1" source="nC2SWgwCaOQuHV5JSC3r-12">
          <mxGeometry width="50" height="50" relative="1" as="geometry">
            <mxPoint x="322.5" y="189" as="sourcePoint" />
            <mxPoint x="327.5" y="362" as="targetPoint" />
          </mxGeometry>
        </mxCell>
        <mxCell id="nC2SWgwCaOQuHV5JSC3r-23" value="" style="endArrow=none;html=1;rounded=0;exitX=0.236;exitY=0.028;exitDx=0;exitDy=0;exitPerimeter=0;" edge="1" parent="1" source="nC2SWgwCaOQuHV5JSC3r-13">
          <mxGeometry width="50" height="50" relative="1" as="geometry">
            <mxPoint x="332.5" y="199" as="sourcePoint" />
            <mxPoint x="376.5" y="359" as="targetPoint" />
          </mxGeometry>
        </mxCell>
        <mxCell id="nC2SWgwCaOQuHV5JSC3r-24" value="" style="endArrow=none;html=1;rounded=0;exitX=0.009;exitY=0.282;exitDx=0;exitDy=0;exitPerimeter=0;" edge="1" parent="1" source="nC2SWgwCaOQuHV5JSC3r-11">
          <mxGeometry width="50" height="50" relative="1" as="geometry">
            <mxPoint x="342.5" y="209" as="sourcePoint" />
            <mxPoint x="394.5" y="349" as="targetPoint" />
          </mxGeometry>
        </mxCell>
      </root>
    </mxGraphModel>
  </diagram>
</mxfile>
